<?xml version="1.0" encoding="utf-8"?>
<!-- Generator: Adobe Illustrator 23.0.3, SVG Export Plug-In . SVG Version: 6.00 Build 0)  -->
<svg version="1.1" id="Layer_1" xmlns="http://www.w3.org/2000/svg" xmlns:xlink="http://www.w3.org/1999/xlink" x="0px" y="0px"
	 viewBox="0 0 2550 936.36" style="enable-background:new 0 0 2550 936.36;" xml:space="preserve">
<style type="text/css">
	.st0{fill:#FFFFFF;}
	.st1{fill:#88898C;}
</style>
<g>
	<path class="st0" d="M466.35,549.02l-32.25-29.37c-15.54,8.94-33.95,13.41-55.23,13.41c-17.24,0-32.83-3.03-46.77-9.1
		c-13.94-6.07-25.75-14.47-35.44-25.22c-9.69-10.75-17.08-23.36-22.19-37.83c-5.11-14.47-7.66-29.9-7.66-46.29
		c0-16.81,2.55-32.56,7.66-47.25c5.11-14.69,12.5-27.51,22.19-38.47c9.68-10.96,21.5-19.47,35.44-25.54
		c13.94-6.07,29.53-9.1,46.77-9.1c17.24,0,32.83,3.03,46.77,9.1c13.94,6.07,25.8,14.58,35.6,25.54
		c9.79,10.96,17.18,23.78,22.19,38.47c5,14.69,7.5,30.44,7.5,47.25c0,16.39-2.55,31.77-7.66,46.13
		c-5.11,14.37-12.45,26.98-22.03,37.83l28.41,25.86L466.35,549.02z M400.9,443.34l25.86,23.62c9.36-12.98,14.05-30.43,14.05-52.36
		c0-10.43-1.17-20.32-3.51-29.69c-2.34-9.36-5.96-17.66-10.85-24.9c-4.9-7.23-11.33-12.98-19.32-17.24
		c-7.98-4.26-17.4-6.39-28.25-6.39c-10.85,0-20.27,2.13-28.25,6.39c-7.98,4.26-14.42,10.01-19.32,17.24
		c-4.9,7.24-8.52,15.54-10.85,24.9c-2.34,9.37-3.51,19.27-3.51,29.69c0,10.01,1.17,19.53,3.51,28.57
		c2.34,9.05,6.01,17.19,11.01,24.42c5,7.24,11.44,12.93,19.32,17.08c7.87,4.15,17.24,6.23,28.09,6.23c5.32,0,9.63-0.16,12.93-0.48
		c3.3-0.32,5.69-1.22,7.18-2.71l-21.39-19.47L400.9,443.34z"/>
	<path class="st0" d="M663.97,527.63h-43.1v-22.99h-0.96c-5.54,8.94-12.82,15.75-21.87,20.43c-9.05,4.68-18.57,7.02-28.57,7.02
		c-11.71,0-21.5-1.6-29.37-4.79c-7.88-3.19-14.1-7.77-18.68-13.73c-4.58-5.96-7.77-12.98-9.58-21.07
		c-1.81-8.09-2.71-17.56-2.71-28.41V362.57h45.33v93.22c0,13.84,2.28,24.05,6.86,30.65c4.57,6.6,11.97,9.9,22.19,9.9
		c12.34,0,21.28-3.67,26.82-11.01c5.53-7.34,8.3-19.42,8.3-36.24v-86.52h45.33V527.63z"/>
	<path class="st0" d="M733.88,337.03h-45.33v-37.35h45.33V337.03z M688.55,362.57h45.33v165.06h-45.33V362.57z"/>
	<path class="st0" d="M870.84,420.68c-2.98-18.94-14.16-28.41-33.52-28.41c-6.81,0-12.77,1.6-17.88,4.79
		c-5.11,3.19-9.15,7.4-12.13,12.61c-2.98,5.22-5.16,10.96-6.54,17.24c-1.39,6.28-2.08,12.61-2.08,19c0,6.38,0.69,12.61,2.08,18.68
		c1.38,6.07,3.51,11.6,6.39,16.6c2.87,5,6.75,9.05,11.65,12.13c4.89,3.09,10.75,4.63,17.56,4.63c10.22,0,18.41-2.98,24.58-8.94
		c6.17-5.96,10-14.15,11.49-24.58h43.74c-2.77,21.71-11.23,38.42-25.38,50.12c-14.16,11.71-32.2,17.56-54.11,17.56
		c-12.13,0-23.36-2.08-33.68-6.23c-10.33-4.15-19.21-10-26.66-17.56c-7.45-7.55-13.14-16.49-17.08-26.82
		c-3.94-10.32-5.91-21.65-5.91-34c0-12.77,1.86-24.63,5.59-35.6c3.72-10.96,9.2-20.48,16.44-28.57
		c7.23-8.09,16.12-14.31,26.66-18.68c10.54-4.36,22.4-6.54,35.6-6.54c20.86,0,38.68,5.43,53.48,16.28
		c14.79,10.85,22.83,26.29,24.1,46.29H870.84z"/>
	<path class="st0" d="M934.69,299.68h45.33v122.28l57.15-59.38h53.63l-62.26,60.66l69.28,104.4h-54.91l-45.33-73.75l-17.56,16.92
		v56.83h-45.33V299.68z"/>
	<path class="st0" d="M1340.14,299.68h102.8c13.62,0,25.49,1.97,35.6,5.91c10.11,3.94,18.36,9.37,24.74,16.28
		c6.39,6.92,11.06,14.74,14.05,23.47c2.98,8.73,4.47,17.88,4.47,27.46c0,9.58-1.49,18.73-4.47,27.46
		c-2.98,8.73-7.66,16.55-14.05,23.47c-6.38,6.92-14.64,12.35-24.74,16.28c-10.11,3.94-21.98,5.91-35.6,5.91h-52.68v81.73h-50.12
		V299.68z M1390.27,406.95h38.95c6.38,0,12.13-0.48,17.24-1.44c5.11-0.96,9.74-2.66,13.89-5.11c4.15-2.44,7.34-5.91,9.58-10.38
		c2.24-4.47,3.35-10.22,3.35-17.24c0-7.02-1.12-12.77-3.35-17.24c-2.23-4.47-5.43-7.98-9.58-10.54c-4.15-2.55-8.78-4.25-13.89-5.11
		c-5.11-0.85-10.86-1.28-17.24-1.28h-38.95V406.95z"/>
	<path class="st0" d="M1537.12,362.57h43.1v30.65h0.64c4.04-10.22,11.06-18.62,21.07-25.22c10-6.59,20.54-9.9,31.61-9.9
		c3.4,0,6.71,0.53,9.9,1.6v42.14c-1.92-0.42-4.42-0.8-7.5-1.12c-3.09-0.32-6.02-0.48-8.78-0.48c-15.54,0-26.87,4.84-34,14.53
		c-7.13,9.69-10.7,22.51-10.7,38.47v74.39h-45.33V362.57z"/>
	<path class="st0" d="M1681.75,456.11c0.64,14.26,4.36,24.8,11.17,31.61c6.81,6.81,16.6,10.22,29.37,10.22
		c8.72,0,16.49-2.18,23.31-6.54c6.81-4.36,10.96-9.31,12.45-14.85h39.91c-6.18,18.95-15.8,32.94-28.89,41.98
		c-13.09,9.05-29.21,13.57-48.37,13.57c-12.77,0-24.37-2.08-34.8-6.23c-10.43-4.15-19.31-10.11-26.66-17.88
		c-7.34-7.77-12.98-17.03-16.92-27.78c-3.94-10.74-5.91-22.4-5.91-34.96c0-12.34,2.02-23.83,6.07-34.48
		c4.04-10.64,9.79-19.9,17.24-27.78c7.45-7.87,16.39-13.99,26.82-18.36c10.43-4.36,21.81-6.54,34.16-6.54
		c12.98,0,24.53,2.39,34.64,7.18c10.11,4.79,18.52,11.33,25.22,19.63c6.7,8.3,11.81,17.88,15.32,28.73
		c3.51,10.85,5.27,22.35,5.27,34.48c0,0.85-0.11,2.13-0.32,3.83c0,1.92,0,3.3,0,4.15H1681.75z M1755.5,427.38
		c-2.13-11.92-6.02-20.75-11.65-26.5c-5.64-5.75-13.78-8.62-24.42-8.62c-6.81,0-12.61,1.17-17.4,3.51
		c-4.79,2.34-8.67,5.32-11.65,8.94c-2.98,3.62-5.11,7.4-6.38,11.33c-1.28,3.94-2.03,7.72-2.24,11.33H1755.5z"/>
	<path class="st0" d="M1851.59,473.99c0.21,9.37,3.62,16.34,10.22,20.91c6.59,4.58,14.79,6.86,24.58,6.86
		c7.87,0,14.79-1.7,20.75-5.11c5.96-3.4,8.94-8.72,8.94-15.96c0-6.39-3.83-11.22-11.49-14.53c-7.66-3.3-20.97-6.97-39.91-11.01
		c-7.66-1.7-14.42-3.56-20.27-5.59c-5.86-2.02-11.23-4.68-16.12-7.98c-4.9-3.3-8.78-7.45-11.65-12.45c-2.87-5-4.31-11.01-4.31-18.04
		c0-10,1.96-18.52,5.91-25.54c3.94-7.02,9.31-12.5,16.12-16.44c6.81-3.94,14.42-6.75,22.83-8.46c8.41-1.7,17.4-2.55,26.98-2.55
		c9.58,0,18.46,0.91,26.66,2.71c8.19,1.81,15.64,4.74,22.35,8.78c6.7,4.05,12.13,9.47,16.28,16.28c4.15,6.81,6.65,15.11,7.5,24.9
		h-43.1c-0.64-8.3-3.67-14.1-9.1-17.4c-5.43-3.3-12.72-4.95-21.87-4.95c-7.02,0-12.99,1.07-17.88,3.19
		c-4.9,2.13-7.34,6.18-7.34,12.13c0,6.18,3.19,10.65,9.58,13.41c6.38,2.77,16.17,5.54,29.37,8.3c5.96,1.28,10.11,2.23,12.45,2.87
		c7.66,1.71,14.47,3.67,20.43,5.91c5.96,2.23,11.38,5.06,16.28,8.46c4.89,3.41,8.72,7.77,11.49,13.09
		c2.76,5.32,4.15,11.6,4.15,18.84c0,10.43-2.08,19.37-6.23,26.82c-4.15,7.45-9.79,13.41-16.92,17.88
		c-7.13,4.47-15.11,7.72-23.94,9.74c-8.83,2.02-18.25,3.03-28.25,3.03c-10.22,0-19.79-1.01-28.73-3.03
		c-8.94-2.02-17.03-5.32-24.26-9.9c-7.24-4.58-13.04-10.64-17.4-18.2c-4.36-7.55-6.76-16.55-7.18-26.98H1851.59z"/>
	<path class="st0" d="M2011.85,473.99c0.21,9.37,3.62,16.34,10.22,20.91c6.59,4.58,14.79,6.86,24.58,6.86
		c7.87,0,14.79-1.7,20.75-5.11c5.96-3.4,8.94-8.72,8.94-15.96c0-6.39-3.83-11.22-11.49-14.53c-7.66-3.3-20.97-6.97-39.91-11.01
		c-7.66-1.7-14.42-3.56-20.27-5.59c-5.86-2.02-11.23-4.68-16.12-7.98c-4.9-3.3-8.78-7.45-11.65-12.45c-2.87-5-4.31-11.01-4.31-18.04
		c0-10,1.96-18.52,5.91-25.54c3.94-7.02,9.31-12.5,16.12-16.44c6.81-3.94,14.42-6.75,22.83-8.46c8.41-1.7,17.4-2.55,26.98-2.55
		c9.58,0,18.46,0.91,26.66,2.71c8.19,1.81,15.64,4.74,22.35,8.78c6.7,4.05,12.13,9.47,16.28,16.28c4.15,6.81,6.65,15.11,7.5,24.9
		h-43.1c-0.64-8.3-3.67-14.1-9.1-17.4c-5.43-3.3-12.72-4.95-21.87-4.95c-7.02,0-12.99,1.07-17.88,3.19
		c-4.9,2.13-7.34,6.18-7.34,12.13c0,6.18,3.19,10.65,9.58,13.41c6.38,2.77,16.17,5.54,29.37,8.3c5.96,1.28,10.11,2.23,12.45,2.87
		c7.66,1.71,14.47,3.67,20.43,5.91c5.96,2.23,11.38,5.06,16.28,8.46c4.89,3.41,8.72,7.77,11.49,13.09
		c2.76,5.32,4.15,11.6,4.15,18.84c0,10.43-2.08,19.37-6.23,26.82c-4.15,7.45-9.79,13.41-16.92,17.88
		c-7.13,4.47-15.11,7.72-23.94,9.74c-8.83,2.02-18.25,3.03-28.25,3.03c-10.22,0-19.79-1.01-28.73-3.03
		c-8.94-2.02-17.03-5.32-24.26-9.9c-7.24-4.58-13.04-10.64-17.4-18.2c-4.36-7.55-6.76-16.55-7.18-26.98H2011.85z"/>
	<path class="st0" d="M2174.35,456.11c0.64,14.26,4.36,24.8,11.17,31.61c6.81,6.81,16.6,10.22,29.37,10.22
		c8.72,0,16.49-2.18,23.31-6.54c6.81-4.36,10.96-9.31,12.45-14.85h39.91c-6.18,18.95-15.8,32.94-28.89,41.98
		c-13.09,9.05-29.21,13.57-48.37,13.57c-12.77,0-24.37-2.08-34.8-6.23c-10.43-4.15-19.31-10.11-26.66-17.88
		c-7.34-7.77-12.98-17.03-16.92-27.78c-3.94-10.74-5.91-22.4-5.91-34.96c0-12.34,2.02-23.83,6.07-34.48
		c4.04-10.64,9.79-19.9,17.24-27.78c7.45-7.87,16.39-13.99,26.82-18.36c10.43-4.36,21.81-6.54,34.16-6.54
		c12.98,0,24.53,2.39,34.64,7.18c10.11,4.79,18.52,11.33,25.22,19.63c6.7,8.3,11.81,17.88,15.32,28.73
		c3.51,10.85,5.27,22.35,5.27,34.48c0,0.85-0.11,2.13-0.32,3.83c0,1.92,0,3.3,0,4.15H2174.35z M2248.1,427.38
		c-2.13-11.92-6.02-20.75-11.65-26.5c-5.64-5.75-13.78-8.62-24.42-8.62c-6.81,0-12.61,1.17-17.4,3.51
		c-4.79,2.34-8.67,5.32-11.65,8.94c-2.98,3.62-5.11,7.4-6.38,11.33c-1.28,3.94-2.03,7.72-2.24,11.33H2248.1z"/>
</g>
<g>
	<path class="st1" d="M1260.52,460.32l-7.89-64.34l-86.17,31.17l-0.02,0.05c-3.26,0.77-5.23,6.29-4.5,12.64
		c0.83,6.64,4.29,11.64,7.73,11.2c0.07,0.02,0.14,0.01,0.2-0.02L1260.52,460.32z"/>
	<path class="st0" d="M1288.06,361.81l-37.34-68.09l-137.3,110.08l-0.02,0.05c-1.83,1.29-1.74,5.37,0.39,9.3
		c2.25,4.1,5.81,6.39,7.96,5.22c0,0,0.05,0.03,0.11,0.01L1288.06,361.81z"/>
	<path class="st0" d="M1284.14,567.76l21.76-74.58l-176.43-19.66l0.02,0.04c-2.25-0.36-5.05,2.64-6.33,6.94
		c-1.28,4.46-0.44,8.62,1.91,9.25c0,0,0.02-0.01,0.05,0.01L1284.14,567.76z"/>
</g>
<g>
	<path class="st1" d="M1909.37,661.36h22v22h-22V661.36z"/>
	<path class="st1" d="M1961.87,588.26c7.93-8.2,18.57-12.7,31.9-13.5c2.4,0,5,0.2,7.8,0.6c2.8,0.4,5.73,1.13,8.8,2.2
		c5.87,2.13,11.37,6,16.5,11.6c5.13,5.6,8.23,13.93,9.3,25h-17.2c-0.93-7.6-3.67-13.27-8.2-17c-4.53-3.73-9.53-5.6-15-5.6
		c-0.67,0-1.37,0.03-2.1,0.1c-0.73,0.07-1.43,0.17-2.1,0.3c-7.2,1.2-13.73,5.37-19.6,12.5c-5.87,7.13-8.6,17.17-8.2,30.1
		c0.4,13.33,3.43,23,9.1,29c5.66,6,11.83,9.07,18.5,9.2c0.13,0,0.23,0,0.3,0c0.07,0,0.17,0,0.3,0c6.67,0,12.73-2.33,18.2-7
		c5.47-4.67,8.4-10.87,8.8-18.6h17.2c0,12.53-4.17,22.53-12.5,30c-8.33,7.47-18.83,11.53-31.5,12.2c-1.47-0.13-3-0.27-4.6-0.4
		c-1.6-0.13-3.2-0.4-4.8-0.8c-9.73-1.87-18.57-7.27-26.5-16.2c-7.93-8.93-11.23-25.6-9.9-50
		C1948.77,607.7,1953.94,596.46,1961.87,588.26z"/>
	<path class="st1" d="M2051.97,594.16c6.8-11.87,19.67-17.8,38.6-17.8c1.2,0,2.4,0.03,3.6,0.1c1.2,0.07,2.4,0.17,3.6,0.3
		c10,1.47,19.2,6.53,27.6,15.2c8.4,8.67,12.6,22.87,12.6,42.6c0,2.93-0.3,6.33-0.9,10.2c-0.6,3.87-1.7,7.87-3.3,12
		c-2.93,7.2-7.73,13.8-14.4,19.8c-6.67,6-16.27,9.27-28.8,9.8c-14.94,0.8-26.8-2.9-35.6-11.1c-8.8-8.2-13.2-21.77-13.2-40.7
		C2041.77,619.5,2045.17,606.03,2051.97,594.16z M2069.17,662.76c6,6.27,12.46,9.4,19.4,9.4c0.13,0,0.23,0,0.3,0
		c0.07,0,0.17,0,0.3,0c7.87-0.13,15.03-3.93,21.5-11.4c6.46-7.47,9.23-17.8,8.3-31c-0.4-12.8-3.7-22.43-9.9-28.9
		c-6.2-6.47-13.04-9.7-20.5-9.7c-7.6,0-14.5,3.47-20.7,10.4c-6.2,6.93-9.1,17.4-8.7,31.4
		C2059.84,646.56,2063.17,656.5,2069.17,662.76z"/>
	<path class="st1" d="M2152.97,577.76h17.2v14.2c1.46-4.53,4.96-8.6,10.5-12.2c5.53-3.6,11.83-5.47,18.9-5.6
		c1.73,0,3.47,0.13,5.2,0.4c1.73,0.27,3.47,0.67,5.2,1.2c3.47,1.07,6.93,2.77,10.4,5.1c3.47,2.33,6.73,5.5,9.8,9.5
		c2.13-5.07,6.13-8.93,12-11.6c5.87-2.67,12.07-4.07,18.6-4.2c8,0,15.23,2.27,21.7,6.8c6.47,4.53,9.5,11.73,9.1,21.6v80.4h-17.4
		v-72.4c-0.27-6.93-2.23-11.93-5.9-15c-3.67-3.07-7.83-4.67-12.5-4.8c-0.67,0-1.3,0.03-1.9,0.1c-0.6,0.07-1.23,0.17-1.9,0.3
		c-5.47,0.93-10.47,3.63-15,8.1c-4.53,4.47-6.8,10.3-6.8,17.5v66.2h-17.4v-75.6c0-5.33-1.83-9.37-5.5-12.1
		c-3.67-2.73-7.83-4.1-12.5-4.1c-0.53,0-1.1,0.03-1.7,0.1c-0.6,0.07-1.17,0.1-1.7,0.1c-5.33,0.8-10.2,3.3-14.6,7.5
		c-4.4,4.2-6.6,10.17-6.6,17.9v66.2h-17.2V577.76z"/>
</g>
</svg>
